<?xml version="1.0" encoding="utf-8"?>
<!-- Generator: Adobe Illustrator 19.2.1, SVG Export Plug-In . SVG Version: 6.00 Build 0)  -->
<svg version="1.1" id="layer" xmlns="http://www.w3.org/2000/svg" xmlns:xlink="http://www.w3.org/1999/xlink" x="0px" y="0px"
	 viewBox="21 202 601 238" style="enable-background:new 0 0 652 652;" xml:space="preserve">
<style type="text/css">
	.st0{fill:#369044;}
	.st1{fill:#FFFFFF;}
</style>
<path class="st0" d="M337.6,352.5l-3.9-44.2l-14.1,44.2h-9.3l-14.1-44.3l-4,44.3h-14.2l5.2-60.6h20.5l11.2,34.6l11.3-34.6h20.4
	l5.1,60.6H337.6z M392.1,330.7c0,7.1-4.4,11.9-11.1,11.9c-6.4,0-10.7-4.8-10.7-11.9c0-7.1,4.3-11.9,10.7-11.9
	C387.7,318.8,392.1,323.7,392.1,330.7 M356.8,330.7c0,14.3,10.1,22.6,24.3,22.6c14.3,0,24.4-8.3,24.4-22.6c0-14.2-10-22.5-24.4-22.5
	C366.9,308.2,356.8,316.6,356.8,330.7 M445.1,330.9c0,7.2-4.7,11.4-10.7,11.4s-10.6-4.3-10.6-11.4c0-7.1,4.7-11.5,10.6-11.5
	S445.1,323.7,445.1,330.9 M458.6,330.9c0-14.3-9.6-22.6-21-22.6c-5.4,0-10.2,1.9-12.7,5.3v-24.9h-13.5v63.8h12.8l0.3-4.9
	c2.4,3.9,7.4,5.9,13.1,5.9C449.1,353.5,458.6,345.2,458.6,330.9 M465.2,352.5h13.6v-43.4h-13.6V352.5z M464.4,296.2
	c0,4.2,3.4,7.6,7.6,7.6c4.1,0,7.5-3.4,7.5-7.6c0-4.2-3.4-7.5-7.5-7.5C467.9,288.7,464.4,292,464.4,296.2 M490.1,352.5h13.7v-63.8
	h-13.7V352.5z M515.1,352.5h13.6v-43.4h-13.6V352.5z M514.4,296.2c0,4.2,3.4,7.6,7.6,7.6c4.1,0,7.5-3.4,7.5-7.6
	c0-4.2-3.4-7.5-7.5-7.5C517.8,288.7,514.4,292,514.4,296.2 M544.8,338.4c0,9,4.9,14.1,13.8,14.1h8.6v-10.2h-3.9
	c-3,0-4.7-1.6-4.7-5.4v-17.5h8.6v-10.3h-8.6v-13.8h-12.2v5.1c0,7-2.8,8.7-7.4,8.7h-2.6v10.3h8.4V338.4 M608,309.1l-10.5,26.8
	l-9.7-26.8H573l18.2,41.3l-10.3,22.4h13.7l27.3-63.8H608z M258.5,320.8c0-65.4-53-118.4-118.4-118.4c-65.4,0-118.4,53-118.4,118.4
	c0,65.4,53,118.4,118.4,118.4C205.5,439.2,258.5,386.2,258.5,320.8"/>
<path class="st1" d="M212.1,372.9h-16.6l9-22.2L181,292.2h18.2l13.6,37.8l0,0h0l13.6-37.8h18.2L212.1,372.9z M158.2,314.6
	l-13.6,37.9h-18.2l24.3-60.3h15l24.3,60.3h-18.2L158.2,314.6z M33.1,352.5h18.2l13.6-37.9l13.6,37.9h18.2l13.6-37.9l9.3,25.9l8.8-22
	l-10.6-26.4h-7.5h-7.5l-15.2,37.7l-15.2-37.7h-7.5h-7.5L33.1,352.5"/>
</svg>
