<?xml version="1.0" encoding="UTF-8" standalone="no"?>
<svg
   xmlns:dc="http://purl.org/dc/elements/1.1/"
   xmlns:cc="http://creativecommons.org/ns#"
   xmlns:rdf="http://www.w3.org/1999/02/22-rdf-syntax-ns#"
   xmlns:svg="http://www.w3.org/2000/svg"
   xmlns="http://www.w3.org/2000/svg"
   viewBox="0 0 209.86667 36"
   height="36"
   width="209.86667"
   xml:space="preserve"
   id="svg2"
   version="1.1"><metadata
     id="metadata8"><rdf:RDF><cc:Work
         rdf:about=""><dc:format>image/svg+xml</dc:format><dc:type
           rdf:resource="http://purl.org/dc/dcmitype/StillImage" /></cc:Work></rdf:RDF></metadata><defs
     id="defs6" /><g
     transform="matrix(1.3333333,0,0,-1.3333333,0,36)"
     id="g10"><g
       transform="scale(0.1)"
       id="g12"><path
         id="path14"
         style="fill:#ffffff;fill-opacity:1;fill-rule:nonzero;stroke:none"
         d="m 35.4023,18.8086 h 176.969 v 221.207 H 35.4023 Z" /><path
         id="path16"
         style="fill:#4f2987;fill-opacity:1;fill-rule:nonzero;stroke:none"
         d="m 118.953,129.18 c -27.6639,16.523 -24.9022,40.097 -13.426,57.425 0.243,0.383 0.325,0.969 0.243,1.672 -0.465,4.125 -4.958,14.555 -6.8364,17.371 -0.4961,0.735 -0.9063,0.676 -0.9375,0.172 -0.1523,-4.711 -5.5352,-16.547 -13.7383,-30.14 -8.7305,-14.508 -8.7617,-45.946 34.5972,-47.145 0.391,-0.027 0.508,0.379 0.098,0.645 z m 7.426,1.203 c -16.567,35.359 16.531,58.187 21.922,63.137 0.769,0.699 0.578,1.343 0.586,2.125 0,11.117 -6.36,29.136 -8.438,31.699 -0.304,0.41 -0.578,0.234 -0.676,-0.16 -2.839,-10.989 -17.91,-27.336 -20.918,-30.911 -25.5659,-30.351 -19.7027,-48.851 6.957,-66.3 0.34,-0.207 0.75,0.027 0.567,0.41 z m 5.367,1.519 c 7.832,37.493 38.344,38.41 41.059,45.52 4.265,11.09 -3.52,30.777 -5.508,33.105 -0.188,0.25 -0.473,0.098 -0.551,-0.117 -4.18,-9.098 -10.879,-17.738 -15.777,-21.699 -6.899,-5.59 -33.403,-25.234 -19.848,-56.836 0.18,-0.391 0.539,-0.32 0.625,0.027 z m 5.449,-3.281 c 49.375,-1.766 52.895,43.25 53.11,60.094 0,0.992 -0.469,1.07 -0.743,0.406 -1.425,-3.516 -7.863,-16.078 -25.683,-23.711 -15.899,-6.84 -25.481,-22.324 -27.133,-36.262 -0.098,-0.32 0.195,-0.496 0.449,-0.527 z m 11.223,-16.844 v 11.336 h -38.965 v -11.336 h 38.965 z M 125.637,31.5703 c 0.332,-1.8828 4.414,-2.8203 5.332,0 l 9.429,74.7847 h -22.925 l 8.164,-74.7847 z M 269.988,0 H 0 V 270 H 269.988 V 0" /><path
         id="path18"
         style="fill:#4f2987;fill-opacity:1;fill-rule:nonzero;stroke:none"
         d="m 338.191,165.484 h 12.368 l 28.543,-37.535 v 37.535 h 13.242 V 104.539 H 380.93 l -29.512,38.738 v -38.738 h -13.227 v 60.945" /><path
         id="path20"
         style="fill:#4f2987;fill-opacity:1;fill-rule:nonzero;stroke:none"
         d="m 415.664,165.484 h 45.984 v -11.929 h -32.656 v -12.364 h 28.735 V 129.27 h -28.735 v -12.793 h 33.078 v -11.938 h -46.406 v 60.945" /><path
         id="path22"
         style="fill:#4f2987;fill-opacity:1;fill-rule:nonzero;stroke:none"
         d="m 478.008,165.484 h 14.363 l 12.617,-41.273 13.672,41.449 h 11.496 l 13.66,-41.449 12.637,41.273 h 14.016 l -20.813,-61.382 h -11.66 L 524.238,143.98 510.48,104.102 h -11.664 l -20.808,61.382 v 0" /><path
         id="path24"
         style="fill:#4f2987;fill-opacity:1;fill-rule:nonzero;stroke:none"
         d="m 641.086,128.562 -23.441,36.922 h 15.683 l 14.543,-24.468 14.797,24.468 h 15.23 L 654.492,128.84 v -24.301 h -13.406 v 24.023" /><path
         id="path26"
         style="fill:#4f2987;fill-opacity:1;fill-rule:nonzero;stroke:none"
         d="m 685.738,134.824 v 0.188 c 0,17.316 13.664,31.496 32.477,31.496 18.805,0 32.312,-13.988 32.312,-31.32 v -0.176 c 0,-17.317 -13.679,-31.528 -32.492,-31.528 -18.805,0 -32.297,14.004 -32.297,31.34 z m 50.754,0 v 0.188 c 0,10.433 -7.652,19.129 -18.457,19.129 -10.805,0 -18.277,-8.496 -18.277,-18.953 v -0.176 c 0,-10.442 7.648,-19.16 18.457,-19.16 10.777,0 18.277,8.543 18.277,18.972 v 0" /><path
         id="path28"
         style="fill:#4f2987;fill-opacity:1;fill-rule:nonzero;stroke:none"
         d="m 771.145,165.484 h 27.835 c 7.793,0 13.79,-2.183 17.782,-6.187 3.429,-3.399 5.246,-8.184 5.246,-13.926 v -0.176 c 0,-9.843 -5.332,-16.015 -13.067,-18.886 l 14.852,-21.77 H 808.18 l -13.098,19.516 h -10.52 v -19.516 h -13.417 z m 26.984,-29.617 c 6.535,0 10.285,3.508 10.285,8.641 v 0.16 c 0,5.742 -4.016,8.711 -10.547,8.711 h -13.305 v -17.512 h 13.567 v 0" /><path
         id="path30"
         style="fill:#4f2987;fill-opacity:1;fill-rule:nonzero;stroke:none"
         d="m 842.809,165.484 h 13.418 v -26.66 l 24.726,26.66 h 16.172 l -24.816,-25.855 25.929,-35.09 h -16.086 l -18.894,25.949 -7.031,-7.324 v -18.625 h -13.418 v 60.945" /><path
         id="path32"
         style="fill:#4f2987;fill-opacity:1;fill-rule:nonzero;stroke:none"
         d="m 948.922,130.645 v 34.839 h 13.418 v -34.468 c 0,-9.922 4.949,-15.071 13.125,-15.071 8.172,0 13.144,4.973 13.144,14.614 v 34.925 h 13.431 v -34.398 c 0,-18.469 -10.376,-27.492 -26.724,-27.492 -16.375,0 -26.394,9.14 -26.394,27.051 v 0" /><path
         id="path34"
         style="fill:#4f2987;fill-opacity:1;fill-rule:nonzero;stroke:none"
         d="m 1024.41,165.484 h 12.36 l 28.54,-37.535 v 37.535 h 13.25 v -60.945 h -11.4 l -29.53,38.738 v -38.738 h -13.22 v 60.945" /><path
         id="path36"
         style="fill:#4f2987;fill-opacity:1;fill-rule:nonzero;stroke:none"
         d="m 1102.5,165.484 h 13.41 v -60.945 h -13.41 v 60.945" /><path
         id="path38"
         style="fill:#4f2987;fill-opacity:1;fill-rule:nonzero;stroke:none"
         d="m 1134.62,165.484 h 14.83 l 15.92,-42.906 15.9,42.906 h 14.48 l -24.64,-61.382 h -11.84 l -24.65,61.382 v 0" /><path
         id="path40"
         style="fill:#4f2987;fill-opacity:1;fill-rule:nonzero;stroke:none"
         d="m 1213.85,165.484 h 45.99 v -11.929 h -32.66 v -12.364 h 28.73 V 129.27 h -28.73 v -12.793 h 33.07 v -11.938 h -46.4 v 60.945" /><path
         id="path42"
         style="fill:#4f2987;fill-opacity:1;fill-rule:nonzero;stroke:none"
         d="m 1280.88,165.484 h 27.87 c 7.75,0 13.76,-2.183 17.75,-6.187 3.4,-3.399 5.21,-8.184 5.21,-13.926 v -0.176 c 0,-9.843 -5.27,-16.015 -13,-18.886 l 14.84,-21.77 h -15.66 l -13.05,19.516 h -10.57 v -19.516 h -13.39 z m 26.99,-29.617 c 6.52,0 10.25,3.508 10.25,8.641 v 0.16 c 0,5.742 -3.98,8.711 -10.49,8.711 h -13.36 v -17.512 h 13.6 v 0" /><path
         id="path44"
         style="fill:#4f2987;fill-opacity:1;fill-rule:nonzero;stroke:none"
         d="m 1348.35,113.438 7.91,9.472 c 5.51,-4.512 11.25,-7.414 18.23,-7.414 5.45,0 8.79,2.199 8.79,5.742 v 0.176 c 0,3.398 -2.11,5.148 -12.28,7.766 -12.31,3.125 -20.22,6.535 -20.22,18.636 v 0.149 c 0,11.074 8.88,18.383 21.36,18.383 8.85,0 16.44,-2.797 22.62,-7.754 l -6.97,-10.078 c -5.39,3.726 -10.71,5.996 -15.85,5.996 -5.13,0 -7.82,-2.364 -7.82,-5.317 v -0.175 c 0,-4 2.6,-5.309 13.14,-8.004 12.34,-3.223 19.32,-7.664 19.32,-18.282 v -0.156 c 0,-12.117 -9.23,-18.926 -22.39,-18.926 -9.22,0 -18.51,3.223 -25.84,9.786 v 0" /><path
         id="path46"
         style="fill:#4f2987;fill-opacity:1;fill-rule:nonzero;stroke:none"
         d="m 1417.55,165.484 h 13.42 v -60.945 h -13.42 v 60.945" /><path
         id="path48"
         style="fill:#4f2987;fill-opacity:1;fill-rule:nonzero;stroke:none"
         d="m 1469.12,153.121 h -18.56 v 12.363 h 50.51 v -12.363 h -18.57 v -48.582 h -13.38 v 48.582" /><path
         id="path50"
         style="fill:#4f2987;fill-opacity:1;fill-rule:nonzero;stroke:none"
         d="m 1537.2,128.562 -23.42,36.922 h 15.66 l 14.53,-24.468 14.79,24.468 H 1574 l -23.42,-36.644 v -24.301 h -13.38 v 24.023" /></g></g></svg>